<?xml version="1.0" encoding="UTF-8"?> <svg xmlns="http://www.w3.org/2000/svg" viewBox="0 0 200.00 77.00" data-guides="{&quot;vertical&quot;:[],&quot;horizontal&quot;:[]}"><defs></defs><mask x="9.50" y="9.00" width="166.3681640625" height="59" maskUnits="userSpaceOnUse" maskContentUnits="userSpaceOnUse" id="tSvg867075daa5"><path fill="rgb(255, 255, 255)" stroke="none" fill-opacity="1" stroke-width="1" stroke-opacity="1" alignment-baseline="baseline" baseline-shift="baseline" color="rgb(51, 51, 51)" mask="url(#tSvg867075daa5)" id="tSvgcafbd1e7b2" title="Path 20" d="M175.8682 9C120.4118 9 64.9564 9 9.5 9C9.5 28.6667 9.5 48.3333 9.5 68C64.9564 68 120.4118 68 175.8682 68C175.8682 48.3333 175.8682 28.6667 175.8682 9Z"></path></mask><path fill="rgb(245, 236, 223)" stroke="none" fill-opacity="1" stroke-width="1" stroke-opacity="1" alignment-baseline="baseline" baseline-shift="baseline" color="rgb(51, 51, 51)" id="tSvgf2a4e6c307" title="Path 21" d="M50.4905 58.0998C50.4905 60.6004 48.4864 62.6005 45.9806 62.6005C37.1276 62.6005 28.2747 62.6005 19.4218 62.6005C16.917 62.6005 14.9119 60.6004 14.9119 58.0998C14.9119 49.2999 14.9119 40.5001 14.9119 31.7003C14.9119 29.2006 16.917 27.2005 19.4218 27.2005C28.2747 27.2005 37.1276 27.2005 45.9806 27.2005C48.4864 27.2005 50.4905 29.2006 50.4905 31.7003C50.4905 40.5001 50.4905 49.2999 50.4905 58.0998C50.4905 58.0998 50.4905 58.0998 50.4905 58.0998ZM47.685 21.6998C44.7779 21.6998 41.8718 21.6998 38.9658 21.6998C42.5737 21.6998 45.3792 18.7999 45.3792 15.3002C45.3792 13.1998 45.3792 11.1004 45.3792 9C43.2746 9 41.17 9 39.0653 9C35.4574 9 32.6519 11.8998 32.6519 15.4005C32.6519 11.8998 29.7448 9 26.2375 9C24.166 9 22.0946 9 20.0231 9C20.0231 11.1004 20.0231 13.1998 20.0231 15.3002C20.0231 18.9002 22.9302 21.6998 26.4376 21.6998C23.5647 21.6998 20.6918 21.6998 17.819 21.6998C13.309 21.6998 9.6006 25.4 9.6006 29.8998C9.6006 39.8668 9.6006 49.8339 9.6006 59.8C9.6006 64.2997 13.309 68 17.819 68C27.8071 68 37.7963 68 47.7845 68C52.2944 68 56.0029 64.2997 56.0029 59.8C56.0029 49.8339 56.0029 39.8668 56.0029 29.8998C55.9024 25.4 52.1949 21.6998 47.685 21.6998Z"></path><path fill="rgb(245, 236, 223)" stroke="none" fill-opacity="1" stroke-width="1" stroke-opacity="1" alignment-baseline="baseline" baseline-shift="baseline" color="rgb(51, 51, 51)" id="tSvg47e1c59bc4" title="Path 22" d="M23.3304 36.0004C21.627 36.0004 20.2242 37.3997 20.2242 39.0998C20.2242 40.8 23.3304 44.8002 23.3304 44.8002C23.3304 44.8002 26.4376 40.8 26.4376 39.0998C26.4376 37.3997 25.0348 36.0004 23.3304 36.0004Z"></path><path fill="rgb(245, 236, 223)" stroke="none" fill-opacity="1" stroke-width="1" stroke-opacity="1" alignment-baseline="baseline" baseline-shift="baseline" color="rgb(51, 51, 51)" id="tSvgcb2472f602" title="Path 23" d="M32.7515 36.0004C31.048 36.0004 29.6443 37.3997 29.6443 39.0998C29.6443 40.8 32.7515 44.8002 32.7515 44.8002C32.7515 44.8002 35.8586 40.8 35.8586 39.0998C35.8586 37.3997 34.4549 36.0004 32.7515 36.0004Z"></path><path fill="rgb(245, 236, 223)" stroke="none" fill-opacity="1" stroke-width="1" stroke-opacity="1" alignment-baseline="baseline" baseline-shift="baseline" color="rgb(51, 51, 51)" id="tSvg13682763181" title="Path 24" d="M28.0414 46.9999C26.337 46.9999 24.9343 48.4002 24.9343 50.1004C24.9343 51.8006 28.0414 55.7998 28.0414 55.7998C28.0414 55.7998 31.1476 51.8006 31.1476 50.1004C31.1476 48.4002 29.7448 46.9999 28.0414 46.9999Z"></path><path fill="rgb(245, 236, 223)" stroke="none" fill-opacity="1" stroke-width="1" stroke-opacity="1" alignment-baseline="baseline" baseline-shift="baseline" color="rgb(51, 51, 51)" id="tSvg3cd3efde22" title="Path 25" d="M37.4625 46.9999C35.7581 46.9999 34.3553 48.4002 34.3553 50.1004C34.3553 51.8006 37.4625 55.7998 37.4625 55.7998C37.4625 55.7998 40.5687 51.8006 40.5687 50.1004C40.5687 48.4002 39.1659 46.9999 37.4625 46.9999Z"></path><path fill="rgb(245, 236, 223)" stroke="none" fill-opacity="1" stroke-width="1" stroke-opacity="1" alignment-baseline="baseline" baseline-shift="baseline" color="rgb(51, 51, 51)" id="tSvg118ab4918e" title="Path 26" d="M42.1725 36.0004C40.4691 36.0004 39.0653 37.3997 39.0653 39.0998C39.0653 40.8 42.1725 44.8002 42.1725 44.8002C42.1725 44.8002 45.2797 40.8 45.2797 39.0998C45.2797 37.3997 43.8759 36.0004 42.1725 36.0004Z"></path><path fill="rgb(245, 236, 223)" stroke="none" fill-opacity="1" stroke-width="1" stroke-opacity="1" alignment-baseline="baseline" baseline-shift="baseline" color="rgb(51, 51, 51)" id="tSvgbb6d66c337" title="Path 27" d="M69.8333 47.4001C69.8333 52.9334 69.8333 58.4666 69.8333 63.9998C68.5975 63.9998 67.3617 63.9998 66.1248 63.9998C66.1248 58.4666 66.1248 52.9334 66.1248 47.4001C67.3617 47.4001 68.5975 47.4001 69.8333 47.4001ZM75.9471 47.4001C75.9471 48.2665 75.9471 49.1338 75.9471 50.0001C73.8425 50.0001 71.7379 50.0001 69.6332 50.0001C69.6332 49.1338 69.6332 48.2665 69.6332 47.4001C71.7379 47.4001 73.8425 47.4001 75.9471 47.4001ZM79.3549 47.4001C79.3549 52.9334 79.3549 58.4666 79.3549 63.9998C78.1181 63.9998 76.8823 63.9998 75.6464 63.9998C75.6464 58.4666 75.6464 52.9334 75.6464 47.4001C76.8823 47.4001 78.1181 47.4001 79.3549 47.4001Z"></path><path fill="rgb(245, 236, 223)" stroke="none" fill-opacity="1" stroke-width="1" stroke-opacity="1" alignment-baseline="baseline" baseline-shift="baseline" color="rgb(51, 51, 51)" id="tSvgff104dcbba" title="Path 28" d="M89.2768 47.2005C90.7801 47.2005 91.9827 47.4001 92.8847 47.7001C93.7867 48 94.388 48.5998 94.7892 49.4003C95.1894 50.1997 95.3905 51.3 95.3905 52.7003C95.3905 54.1006 95.1894 55.2 94.8888 56.0004C94.4875 56.7998 93.9868 57.3004 93.0848 57.6003C92.2834 57.9002 91.1803 58.0998 89.7775 58.0998C89.0756 58.0998 88.2742 58.0998 87.5723 58.0005C86.8715 57.9002 86.1696 57.9002 85.5683 57.7999C84.9669 57.7006 84.4662 57.6003 83.9644 57.5C83.5642 57.3997 83.2635 57.3004 83.0624 57.2001C83.0966 56.6002 83.1298 56.0004 83.163 55.4006C84.065 55.4006 85.0675 55.4006 86.069 55.4006C87.0716 55.4006 88.0741 55.4006 89.0756 55.4006C89.677 55.4006 90.1787 55.3002 90.579 55.2C90.9802 55.0997 91.1803 54.7997 91.3814 54.4005C91.5815 54.0003 91.5815 53.4998 91.5815 52.8006C91.5815 52.1005 91.4809 51.6 91.3814 51.1998C91.1803 50.8005 90.9802 50.4996 90.579 50.4003C90.1787 50.1997 89.677 50.1997 89.0756 50.1997C87.5723 50.1997 86.3697 50.1997 85.2676 50.1997C84.1655 50.1997 83.4636 50.1997 83.163 50.3C83.0292 49.4337 82.8955 48.5664 82.7618 47.7001C83.4636 47.5998 84.065 47.5998 84.6663 47.5004C85.2676 47.5004 85.8689 47.4001 86.5708 47.4001C87.3722 47.2005 88.2742 47.2005 89.2768 47.2005ZM86.5708 47.4001C86.5708 52.9334 86.5708 58.4666 86.5708 63.9998C85.334 63.9998 84.0981 63.9998 82.8623 63.9998C82.8623 58.4666 82.8623 52.9334 82.8623 47.4001C84.0981 47.4001 85.334 47.4001 86.5708 47.4001Z"></path><path fill="rgb(245, 236, 223)" stroke="none" fill-opacity="1" stroke-width="1" stroke-opacity="1" alignment-baseline="baseline" baseline-shift="baseline" color="rgb(51, 51, 51)" id="tSvga7a5c0e20" title="Path 29" d="M104.3098 47.1002C105.613 47.1002 106.7151 47.2005 107.6171 47.5004C108.5191 47.8004 109.2209 48.2006 109.8223 48.8997C110.4236 49.5999 110.8238 50.4003 111.0249 51.4997C111.3256 52.6 111.4251 54.0003 111.4251 55.7005C111.4251 57.3997 111.3256 58.7999 111.0249 59.9003C110.7242 60.9996 110.323 61.9004 109.8223 62.5002C109.2209 63.1 108.5191 63.6006 107.6171 63.9005C106.7151 64.2004 105.613 64.2997 104.3098 64.2997C103.0066 64.2997 101.9045 64.2004 101.0025 63.9005C100.1006 63.6006 99.3987 63.2004 98.7974 62.5002C98.196 61.9004 97.7948 60.9996 97.5947 59.9003C97.294 58.7999 97.1935 57.3997 97.1935 55.7005C97.1935 54.0003 97.294 52.6 97.5947 51.4997C97.8954 50.4003 98.2966 49.5005 98.7974 48.8997C99.2991 48.2999 100.1006 47.8004 101.0025 47.5004C101.9045 47.2005 103.0066 47.1002 104.3098 47.1002ZM104.3098 50.0001C103.5084 50.0001 102.8065 50.1997 102.3057 50.4996C101.804 50.8005 101.5033 51.4003 101.3032 52.1998C101.1031 53.0002 101.0025 54.1999 101.0025 55.7005C101.0025 57.2001 101.1031 58.3004 101.3032 59.2001C101.5033 60.0006 101.804 60.6004 102.3057 60.9996C102.8065 61.3005 103.4078 61.5002 104.3098 61.5002C105.1112 61.5002 105.8131 61.3005 106.3139 60.9996C106.8157 60.6997 107.1163 60.0999 107.3164 59.2001C107.5165 58.3997 107.6171 57.2001 107.6171 55.7005C107.6171 54.1999 107.5165 53.1005 107.3164 52.1998C107.1163 51.4003 106.8157 50.8005 106.3139 50.4996C105.8131 50.1997 105.1112 50.0001 104.3098 50.0001Z"></path><path fill="rgb(245, 236, 223)" stroke="none" fill-opacity="1" stroke-width="1" stroke-opacity="1" alignment-baseline="baseline" baseline-shift="baseline" color="rgb(51, 51, 51)" id="tSvgc7138e2eab" title="Path 30" d="M69.8333 22.6998C69.8333 24.2672 69.8333 25.8337 69.8333 27.4001C69.8333 27.8997 69.8333 28.5005 69.7338 29C69.6332 29.5005 69.5327 30.1004 69.3326 30.5999C69.4331 31.1004 69.5327 31.6 69.6332 32.1005C69.7338 32.6 69.8333 33.1005 69.8333 33.6C69.8333 35.4999 69.8333 37.3997 69.8333 39.3004C68.5975 39.3004 67.3617 39.3004 66.1248 39.3004C66.1248 33.7662 66.1248 28.233 66.1248 22.6998C67.3617 22.6998 68.5975 22.6998 69.8333 22.6998ZM71.8384 29.2999C71.8384 30.1338 71.8384 30.9667 71.8384 31.8005C70.8359 31.8005 69.8333 31.8005 68.8318 31.8005C68.8318 30.9667 68.8318 30.1338 68.8318 29.2999C69.8333 29.2999 70.8359 29.2999 71.8384 29.2999ZM78.9537 22.6998C78.5525 23.8002 78.2518 24.8002 78.0517 25.5997C77.7511 26.4001 77.551 27.1002 77.2503 27.7001C76.9496 28.2999 76.7485 28.8004 76.3483 29.2006C76.0477 29.5999 75.6464 29.8998 75.2452 30.1004C74.845 30.3 74.2437 30.4996 73.6424 30.4996C73.6424 30.533 73.6424 30.5665 73.6424 30.5999C74.3433 30.7002 74.845 30.8005 75.3458 31.0001C75.8466 31.1997 76.2478 31.4996 76.5484 31.8999C76.8491 32.3001 77.2503 32.7996 77.4504 33.4998C77.7511 34.1006 78.0517 34.9 78.3524 35.9001C78.6531 36.7998 79.0543 37.9002 79.4545 39.2001C78.1855 39.2001 76.9155 39.2001 75.6464 39.2001C75.2452 37.7999 74.845 36.6002 74.5444 35.6002C74.2437 34.7004 73.943 33.9 73.6424 33.4004C73.3417 32.7996 72.9405 32.4997 72.5393 32.1998C72.1391 32.0002 71.5377 31.8005 70.9364 31.8005C70.9364 30.9667 70.9364 30.1338 70.9364 29.2999C71.5377 29.2999 72.0385 29.2006 72.5393 28.8997C72.9405 28.5998 73.3417 28.2006 73.6424 27.7001C73.943 27.2005 74.2437 26.5004 74.5444 25.5997C74.845 24.6999 75.1457 23.8002 75.4463 22.6005C76.6148 22.6005 77.7843 22.6005 78.9537 22.6005C78.9537 22.6339 78.9537 22.6664 78.9537 22.6998Z"></path><path fill="rgb(245, 236, 223)" stroke="none" fill-opacity="1" stroke-width="1" stroke-opacity="1" alignment-baseline="baseline" baseline-shift="baseline" color="rgb(51, 51, 51)" id="tSvg12aea31376e" title="Path 31" d="M94.1869 22.6998C94.1869 23.5671 94.1869 24.4334 94.1869 25.2997C92.3497 25.2997 90.5126 25.2997 88.6754 25.2997C87.7734 25.2997 87.2717 25.8002 87.1721 26.7C87.0716 27.8004 86.971 28.7001 86.8715 29.5999C86.7709 30.4996 86.6704 31.3 86.5708 32.0002C86.4702 32.7003 86.3697 33.4004 86.1696 34.0003C86.069 34.6001 85.8689 35.1999 85.6688 35.7004C85.3682 36.7005 84.8664 37.3997 84.3656 38.0005C83.8649 38.6003 83.2635 38.9002 82.5617 39.0998C81.8598 39.3004 81.0583 39.3998 80.1564 39.3004C80.0558 38.3672 79.9563 37.4331 79.8557 36.4999C80.3565 36.3996 80.8582 36.2 81.2585 36.0004C81.6597 35.7998 81.9603 35.4005 82.261 34.7997C82.3615 34.4005 82.5617 34.1006 82.6622 33.7004C82.7618 33.3001 82.8623 32.8999 82.9629 32.4004C83.0624 31.8999 83.163 31.4003 83.163 30.8005C83.2635 30.1997 83.2635 29.5005 83.3631 28.8004C83.4636 28.1003 83.4636 27.2998 83.5642 26.2998C83.7643 23.9005 85.0675 22.6998 87.3722 22.6998C89.6438 22.6998 91.9153 22.6998 94.1869 22.6998ZM94.4875 22.6998C94.4875 28.233 94.4875 33.7662 94.4875 39.3004C93.2517 39.3004 92.0159 39.3004 90.7801 39.3004C90.7801 33.7662 90.7801 28.233 90.7801 22.6998C92.0159 22.6998 93.2517 22.6998 94.4875 22.6998Z"></path><path fill="rgb(245, 236, 223)" stroke="none" fill-opacity="1" stroke-width="1" stroke-opacity="1" alignment-baseline="baseline" baseline-shift="baseline" color="rgb(51, 51, 51)" id="tSvg1432c03d829" title="Path 32" d="M100.2011 22.6998C101.0689 25.6331 101.9377 28.5664 102.8065 31.4996C102.9071 31.7003 103.0066 31.8005 103.3073 31.8005C103.6411 31.8005 103.976 31.8005 104.3098 31.8005C104.6105 32.7003 104.9111 33.6 105.2118 34.4998C104.1429 34.4998 103.074 34.4998 102.0051 34.4998C101.4038 34.4998 100.902 34.3002 100.6013 34.0003C100.3007 33.7004 100 33.3001 99.9005 32.7996C98.7642 29.4002 97.6279 25.9999 96.4926 22.6005C97.7284 22.6005 98.9643 22.6005 100.2011 22.6005C100.2011 22.6339 100.2011 22.6664 100.2011 22.6998ZM110.4236 22.6998C109.0872 26.8003 107.7508 30.8998 106.4144 35.0003C106.1138 35.9001 105.8131 36.7005 105.5125 37.3003C105.2118 38.0005 104.711 38.5 104.2093 38.7999C103.7085 39.0998 103.1072 39.3998 102.3057 39.5001C101.9045 39.5001 101.5033 39.5001 101.0025 39.5001C100.5018 39.5001 100 39.3998 99.4992 39.3998C98.9985 39.3004 98.5972 39.3004 98.196 39.2001C98.3298 38.3338 98.4635 37.4665 98.5972 36.6002C99.2991 36.6002 99.9005 36.7005 100.4012 36.7005C100.902 36.7005 101.2026 36.7005 101.5033 36.6002C101.804 36.4999 102.0051 36.3003 102.2052 36.0997C102.4053 35.9001 102.6064 35.6002 102.706 35.1006C102.8729 34.4998 103.0398 33.9 103.2077 33.3001C103.4078 32.8665 103.6079 32.4338 103.809 32.0002C104.7774 28.8997 105.7457 25.8002 106.7151 22.6998C107.9509 22.6998 109.1868 22.6998 110.4236 22.6998Z"></path><path fill="rgb(245, 236, 223)" stroke="none" fill-opacity="1" stroke-width="1" stroke-opacity="1" alignment-baseline="baseline" baseline-shift="baseline" color="rgb(51, 51, 51)" id="tSvg84da2fce70" title="Path 33" d="M122.8513 22.6998C122.7507 23.6005 122.6501 24.5003 122.5506 25.4C120.0779 25.4 117.6063 25.4 115.1336 25.4C115.1336 30.0001 115.1336 34.6001 115.1336 39.2001C113.8978 39.2001 112.662 39.2001 111.4261 39.2001C111.4261 33.7004 111.4261 28.2006 111.4261 22.6998C112.4277 22.6005 113.3296 22.6005 114.3322 22.6005C115.3347 22.6005 116.2367 22.6005 117.1387 22.6005C118.1402 22.6005 119.1428 22.6005 120.0447 22.6005C120.9467 22.6005 121.8487 22.6005 122.8513 22.6998ZM117.6395 29.4002C119.1428 29.4002 120.446 29.5999 121.2474 29.8998C122.1494 30.1997 122.7507 30.7002 123.1519 31.4003C123.5521 32.1005 123.7532 33.1005 123.7532 34.4005C123.7532 35.4005 123.6527 36.3003 123.352 36.9001C123.1519 37.6002 122.7507 38.0998 122.2499 38.3997C121.7482 38.7999 121.1468 39.0005 120.3454 39.0998C119.544 39.2001 118.7415 39.3004 117.74 39.3004C116.9376 39.3004 116.1361 39.3004 115.4343 39.3004C114.7334 39.3004 114.0315 39.3004 113.4302 39.2001C112.7283 39.2001 112.127 39.0998 111.4261 39.0998C111.5589 38.2335 111.6926 37.3672 111.8263 36.4999C112.2276 36.4999 112.9294 36.4999 113.931 36.4999C114.9335 36.4999 116.2367 36.4999 117.6395 36.4999C118.3413 36.4999 118.8421 36.3996 119.1428 36.3003C119.4434 36.2 119.7441 35.9001 119.8446 35.6002C119.9442 35.1999 120.0447 34.7004 120.0447 34.1006C120.0447 33.4998 119.9442 33.0002 119.8446 32.6C119.7441 32.3001 119.4434 32.0002 119.1428 31.8999C118.7415 31.7003 118.2408 31.7003 117.6395 31.7003C115.7017 31.7003 113.764 31.7003 111.8263 31.7003C111.8263 30.8998 111.8263 30.1004 111.8263 29.2999C113.764 29.2999 115.7017 29.2999 117.6395 29.2999C117.6395 29.3334 117.6395 29.3668 117.6395 29.4002Z"></path><path fill="rgb(245, 236, 223)" stroke="none" fill-opacity="1" stroke-width="1" stroke-opacity="1" alignment-baseline="baseline" baseline-shift="baseline" color="rgb(51, 51, 51)" id="tSvgc0ddc90aa9" title="Path 34" d="M130.9691 22.6998C130.9691 28.233 130.9691 33.7662 130.9691 39.3004C129.7323 39.3004 128.4964 39.3004 127.2606 39.3004C127.2606 33.7662 127.2606 28.233 127.2606 22.6998C128.4964 22.6998 129.7323 22.6998 130.9691 22.6998ZM137.0819 29C137.0819 29.9332 137.0819 30.8664 137.0819 31.8005C134.9772 31.8005 132.8726 31.8005 130.768 31.8005C130.768 30.8664 130.768 29.9332 130.768 29C132.8726 29 134.9772 29 137.0819 29ZM140.4897 22.6998C140.4897 28.233 140.4897 33.7662 140.4897 39.3004C139.2539 39.3004 138.017 39.3004 136.7812 39.3004C136.7812 33.7662 136.7812 28.233 136.7812 22.6998C138.017 22.6998 139.2539 22.6998 140.4897 22.6998Z"></path><path fill="rgb(245, 236, 223)" stroke="none" fill-opacity="1" stroke-width="1" stroke-opacity="1" alignment-baseline="baseline" baseline-shift="baseline" color="rgb(51, 51, 51)" id="tSvg11efbfab12b" title="Path 35" d="M157.6274 22.6998C157.6274 28.233 157.6274 33.7662 157.6274 39.3004C156.4579 39.3004 155.2895 39.3004 154.12 39.3004C154.12 36.0338 154.12 32.7672 154.12 29.5005C154.12 29.1003 154.12 28.8004 154.12 28.4002C154.12 28 154.2196 27.7001 154.2196 27.2998C154.1864 27.2998 154.1532 27.2998 154.12 27.2998C154.0194 27.7001 153.8193 28.1003 153.7188 28.4002C153.5187 28.8004 153.4181 29.1003 153.218 29.5005C151.3135 32.7996 149.409 36.0997 147.5055 39.3998C146.3028 39.3998 145.1002 39.3998 143.8975 39.3998C143.8975 33.8331 143.8975 28.2665 143.8975 22.6998C145.067 22.6998 146.2354 22.6998 147.4049 22.6998C147.4049 25.9006 147.4049 29.1003 147.4049 32.3001C147.4049 32.7003 147.4049 33.0002 147.3044 33.4004C147.3044 33.7997 147.2048 34.1999 147.2048 34.6001C147.238 34.6001 147.2712 34.6001 147.3044 34.6001C147.4049 34.1999 147.605 33.7997 147.8061 33.4998C148.0062 33.1998 148.1068 32.7996 148.3069 32.4004C150.1782 29.1337 152.0486 25.8671 153.9189 22.6005C155.1557 22.6005 156.3916 22.6005 157.6274 22.6005C157.6274 22.6339 157.6274 22.6664 157.6274 22.6998Z"></path><path fill="rgb(245, 236, 223)" stroke="none" fill-opacity="1" stroke-width="1" stroke-opacity="1" alignment-baseline="baseline" baseline-shift="baseline" color="rgb(51, 51, 51)" id="tSvg576b99c8c0" title="Path 36" d="M164.7437 22.6998C164.7437 24.2672 164.7437 25.8337 164.7437 27.4001C164.7437 27.8997 164.7437 28.5005 164.6431 29C164.5426 29.5005 164.443 30.1004 164.2419 30.5999C164.3425 31.1004 164.443 31.6 164.5426 32.1005C164.6431 32.6 164.7437 33.1005 164.7437 33.6C164.7437 35.4999 164.7437 37.3997 164.7437 39.3004C163.5411 39.3004 162.3384 39.3004 161.1358 39.3004C161.1358 33.7662 161.1358 28.233 161.1358 22.6998C162.3384 22.6998 163.5411 22.6998 164.7437 22.6998ZM166.8483 29.2999C166.8483 30.1338 166.8483 30.9667 166.8483 31.8005C165.8458 31.8005 164.8433 31.8005 163.8417 31.8005C163.8417 30.9667 163.8417 30.1338 163.8417 29.2999C164.8433 29.2999 165.8458 29.2999 166.8483 29.2999ZM173.8631 22.6998C173.4629 23.8002 173.1622 24.8002 172.9611 25.5997C172.6604 26.4001 172.4603 27.1002 172.1597 27.7001C171.859 28.2999 171.6589 28.8004 171.2577 29.2006C170.957 29.5999 170.5558 29.8998 170.1556 30.1004C169.7544 30.3 169.1531 30.4996 168.5517 30.4996C168.5517 30.533 168.5517 30.5665 168.5517 30.5999C169.2536 30.7002 169.7544 30.8005 170.2552 31.0001C170.7569 31.1997 171.1571 31.4996 171.4578 31.8999C171.7585 32.3001 172.1597 32.7996 172.3598 33.4998C172.6604 34.1006 172.9611 34.9 173.2618 35.9001C173.5624 36.7998 173.9636 37.9002 174.3649 39.2001C173.0948 39.2001 171.8258 39.2001 170.5558 39.2001C170.1556 37.7999 169.7544 36.6002 169.4537 35.6002C169.1531 34.7004 168.8524 33.9 168.5517 33.4004C168.2511 32.8999 167.8499 32.4997 167.4496 32.1998C167.0484 32.0002 166.4471 31.8005 165.8458 31.8005C165.8458 30.9667 165.8458 30.1338 165.8458 29.2999C166.4471 29.2999 166.9479 29.2006 167.4496 28.8997C167.8499 28.5998 168.2511 28.2006 168.5517 27.7001C168.8524 27.2005 169.1531 26.5004 169.4537 25.5997C169.7544 24.8002 170.055 23.8002 170.3557 22.6005C171.5252 22.6005 172.6946 22.6005 173.8631 22.6005C173.8631 22.6339 173.8631 22.6664 173.8631 22.6998Z"></path><path fill="rgb(245, 236, 223)" stroke="none" fill-opacity="1" stroke-width="1" stroke-opacity="1" alignment-baseline="baseline" baseline-shift="baseline" color="rgb(51, 51, 51)" id="tSvg10762646e50" title="Path 37" d="M184.3862 22.6998C184.6879 22.6998 184.9886 22.8001 185.1887 22.9997C185.3888 23.2003 185.5889 23.3999 185.6894 23.6998C187.2933 28.8997 188.8971 34.1006 190.5 39.3004C189.2642 39.3004 188.0283 39.3004 186.7915 39.3004C185.6562 35.2334 184.52 31.1663 183.3847 27.1002C183.2841 26.8003 183.2841 26.5997 183.1836 26.2998C183.084 25.9999 183.084 25.8002 182.9835 25.5003C182.7834 25.5003 182.5823 25.5003 182.3821 25.5003C182.3821 25.8002 182.2816 25.9999 182.182 26.2998C182.0815 26.5997 182.0815 26.8996 181.9809 27.1002C180.8457 31.1663 179.7094 35.2334 178.5741 39.3004C177.3041 39.3004 176.0351 39.3004 174.7651 39.3004C176.3689 34.1006 177.9728 28.8997 179.5756 23.6998C179.6762 23.3999 179.7768 23.2003 180.0774 22.9997C180.2775 22.8001 180.5782 22.6998 180.8788 22.6998C182.0483 22.6998 183.2178 22.6998 184.3862 22.6998ZM186.9926 32.1005C186.9926 33.0336 186.9926 33.9668 186.9926 34.9C184.1197 34.9 181.2469 34.9 178.373 34.9C178.373 33.9668 178.373 33.0336 178.373 32.1005C181.2469 32.1005 184.1197 32.1005 186.9926 32.1005Z"></path></svg> 