<svg xmlns="http://www.w3.org/2000/svg" viewBox="0 0 64 64" fill="none">
  <rect width="64" height="64" rx="18" fill="#004D2B"/>
  <defs>
    <path id="seed" d="M0 -2.8C1.65 -2.8 3 -1.35 3 0.15C3 1.85 1.8 3.1 0 5.1C-1.8 3.1 -3 1.85 -3 0.15C-3 -1.35 -1.65 -2.8 0 -2.8Z"/>
  </defs>
  <g transform="translate(6 5)">
    <path fill="#F5ECDF" d="M25.96 14.88C21.65 14.88 18.16 11.39 18.16 7.08C22.47 7.08 25.96 10.57 25.96 14.88Z"/>
    <path fill="#F5ECDF" d="M26.04 14.88C30.35 14.88 33.84 11.39 33.84 7.08C29.53 7.08 26.04 10.57 26.04 14.88Z"/>
    <path d="M19.92 17.44H32.08C36.6 17.44 40.28 21.12 40.28 25.64V36.88C40.28 41.4 36.6 45.08 32.08 45.08H19.92C15.4 45.08 11.72 41.4 11.72 36.88V25.64C11.72 21.12 15.4 17.44 19.92 17.44Z" stroke="#F5ECDF" stroke-width="4.4" stroke-linejoin="round"/>
    <g fill="#F5ECDF">
      <use href="#seed" transform="translate(20.92 26.72) rotate(-8)"/>
      <use href="#seed" transform="translate(26.8 26.72) rotate(2)"/>
      <use href="#seed" transform="translate(32.68 26.72) rotate(10)"/>
      <use href="#seed" transform="translate(23.84 34.28) rotate(-4)"/>
      <use href="#seed" transform="translate(29.76 34.28) rotate(6)"/>
    </g>
  </g>
</svg>
