<svg xmlns="http://www.w3.org/2000/svg" viewBox="0 0 140.17 46.00" fill="none" role="img" aria-label="KLUBNIKA PROJECT">
<g transform="translate(0.00 0.00) scale(0.7797)" fill="#FFD5A0"><path d="m 40.8977,49.0932 c 0,2.4987 -2.0273,4.4977 -4.4952,4.4977 H 9.90124 c -2.49735,0 -4.49522,-2.0284 -4.49522,-4.4977 V 22.6064 c 0,-2.4988 2.02725,-4.4978 4.49522,-4.4978 H 36.3731 c 2.4973,0 4.4952,2.0284 4.4952,4.4978 v 26.4868 z m -2.8205,-36.423 h -8.6673 c 3.5551,0 6.405,-2.88096 6.405,-6.40862 V 0 H 29.5568 C 26.0018,0 23.1519,2.88092 23.1519,6.40857 23.1519,2.88092 20.2726,0 16.7175,0 h -6.258 v 6.26158 c 0,3.55705 2.8793,6.40862 6.4049,6.40862 H 8.22655 C 3.70195,12.6702 0,16.3448 0,20.9013 V 50.7688 C 0,55.296 3.67257,59 8.22655,59 H 38.0772 c 4.5246,0 8.2265,-3.6746 8.2265,-8.2312 V 20.9013 c -0.0294,-4.5271 -3.7019,-8.2311 -8.2265,-8.2311 z"/><path d="m 13.75,26.9863 c -1.7335,0 -3.1143,1.4111 -3.1143,3.1161 0,1.7345 3.1143,5.7325 3.1143,5.7325 0,0 3.1143,-3.998 3.1143,-5.7325 0,-1.705 -1.4102,-3.1161 -3.1143,-3.1161 z"/><path d="m 23.1515,26.9863 c -1.7335,0 -3.1144,1.4111 -3.1144,3.1161 0,1.7345 3.1144,5.7325 3.1144,5.7325 0,0 3.1143,-3.998 3.1143,-5.7325 0,-1.705 -1.4103,-3.1161 -3.1143,-3.1161 z"/><path d="m 18.4513,37.9517 c -1.7335,0 -3.1144,1.411 -3.1144,3.1161 0,1.7344 3.1144,5.7324 3.1144,5.7324 0,0 3.1143,-3.998 3.1143,-5.7324 0,-1.7345 -1.4103,-3.1161 -3.1143,-3.1161 z"/><path d="m 27.8526,37.9517 c -1.7334,0 -3.1143,1.411 -3.1143,3.1161 0,1.7344 3.1143,5.7324 3.1143,5.7324 0,0 3.1144,-3.998 3.1144,-5.7324 0,-1.7345 -1.4103,-3.1161 -3.1144,-3.1161 z"/><path d="m 32.5538,26.9863 c -1.7334,0 -3.1143,1.4111 -3.1143,3.1161 0,1.7345 3.1143,5.7325 3.1143,5.7325 0,0 3.1144,-3.998 3.1144,-5.7325 0,-1.705 -1.4103,-3.1161 -3.1144,-3.1161 z"/></g>
<g transform="translate(0 9.03) scale(1 0.8)">
<text x="45.40" y="20.20" fill="#FFD5A0" font-family="'Exo 2', Arial, sans-serif" font-size="26.35" font-weight="800" letter-spacing="-0.05" textLength="94.77" lengthAdjust="spacingAndGlyphs">KLUBNIKA</text>
<text x="45.40" y="45.15" fill="#FFD5A0" font-family="'Exo 2', Arial, sans-serif" font-size="24.96" font-weight="800" letter-spacing="-0.05" textLength="94.77" lengthAdjust="spacingAndGlyphs">PROJECT</text>
</g>
</svg>
